<svg data-v-423bf9ae="" xmlns="http://www.w3.org/2000/svg" viewBox="0 0 505 90" class="iconLeft"><!----><!----><!----><g data-v-423bf9ae="" id="bb300cb7-9411-4c34-95ec-1b0f795333a3" fill="#000000" transform="matrix(5.6980058425006375,0,0,5.6980058425006375,138.86040013667426,-4.31623921172887)"><path d="M5.63 4.05L5.63 10.11C5.63 11.62 4.77 12.50 3.49 12.50C2.56 12.50 1.69 11.98 1.27 10.92L0.20 11.72C0.73 13.06 2.06 13.82 3.46 13.82C5.63 13.82 7.06 12.24 7.06 10.11L7.06 4.05ZM9.07 6.33L9.07 11.21C9.07 13.08 10.11 13.92 11.61 13.92C12.60 13.92 13.38 13.54 13.94 12.81L13.94 13.73L15.20 13.73L15.20 6.33L13.87 6.33L13.87 11.34C13.45 12.33 12.81 12.66 12.03 12.66C11.09 12.66 10.40 12.17 10.40 10.99L10.40 6.33ZM17.33 3.84L17.33 13.73L18.66 13.73L18.66 3.39ZM20.79 6.33L20.79 13.73L22.12 13.73L22.12 6.33ZM21.45 3.50C21 3.50 20.69 3.82 20.69 4.30C20.69 4.76 21 5.10 21.45 5.10C21.90 5.10 22.22 4.76 22.22 4.30C22.22 3.82 21.90 3.50 21.45 3.50ZM25.02 7.99C25.56 7.62 26.19 7.41 26.98 7.41C28.04 7.41 28.70 7.80 28.70 9.11L28.70 9.37C28.11 9.11 27.41 8.97 26.75 8.97C25.12 8.97 23.93 9.83 23.93 11.45C23.93 13.08 25.10 13.83 26.59 13.83C27.40 13.83 28.15 13.61 28.77 13.20L28.77 13.73L30.00 13.73L30.00 9.03C30.00 6.85 28.81 6.15 27.13 6.15C25.90 6.15 25.03 6.52 24.49 6.93ZM26.88 12.73C25.94 12.73 25.19 12.33 25.19 11.38C25.19 10.39 26.01 9.95 27.08 9.95C27.59 9.95 28.20 10.05 28.70 10.23L28.70 12.29C28.15 12.57 27.47 12.73 26.88 12.73ZM32.07 6.33L32.07 13.73L33.40 13.73L33.40 8.71C33.81 7.73 34.47 7.41 35.25 7.41C36.23 7.41 36.88 7.90 36.88 9.18L36.88 13.73L38.21 13.73L38.21 9.04C38.21 6.97 37.17 6.15 35.67 6.15C34.66 6.15 33.88 6.52 33.33 7.24L33.33 6.33ZM40.53 12.24C40.10 12.24 39.77 12.56 39.77 13.03C39.77 13.50 40.10 13.83 40.53 13.83C40.98 13.83 41.30 13.50 41.30 13.03C41.30 12.56 40.98 12.24 40.53 12.24ZM47.11 3.84L47.11 7.18C46.62 6.58 45.91 6.15 44.94 6.15C42.90 6.15 42.14 8.12 42.14 10.04C42.14 11.96 42.90 13.92 44.94 13.92C45.96 13.92 46.70 13.43 47.19 12.78L47.19 13.73L48.44 13.73L48.44 3.39ZM45.28 12.68C43.86 12.68 43.40 11.42 43.40 10.04C43.40 8.65 43.86 7.36 45.26 7.36C46.14 7.36 46.72 7.88 47.11 8.57L47.11 11.49C46.72 12.21 46.14 12.68 45.28 12.68ZM56.53 10.49C56.55 10.33 56.56 10.18 56.56 10.00C56.56 7.52 55.24 6.15 53.42 6.15C51.60 6.15 50.30 7.52 50.30 10.00C50.30 12.60 51.74 13.92 53.51 13.92C54.84 13.92 55.66 13.17 56.07 12.61L55.19 11.84C54.85 12.33 54.29 12.71 53.56 12.71C52.58 12.71 51.70 12.03 51.55 10.49ZM53.44 7.35C54.43 7.35 55.16 8.08 55.31 9.49L51.55 9.49C51.69 8.12 52.42 7.35 53.44 7.35ZM57.15 6.33L59.98 13.73L61.29 13.73L64.12 6.33L62.76 6.33L60.63 12.19L58.49 6.33Z"></path></g><defs data-v-423bf9ae=""><linearGradient data-v-423bf9ae="" gradientTransform="rotate(25)" id="988fc244-debc-426d-b898-2ecf1df3042b" x1="0%" y1="0%" x2="100%" y2="0%"><stop data-v-423bf9ae="" offset="0%" style="stop-color: rgb(73, 36, 126); stop-opacity: 1;"></stop><stop data-v-423bf9ae="" offset="100%" style="stop-color: rgb(170, 73, 199); stop-opacity: 1;"></stop></linearGradient></defs><g data-v-423bf9ae="" id="c51a7e4b-c338-4749-b1ae-ed49293fbf91" transform="matrix(7.5,0,0,7.5,0,-15)" stroke="none" fill="url(#988fc244-debc-426d-b898-2ecf1df3042b)"><path d="M7.969 2L6 13.844 5.969 14h2.063l1.969-11.844.031-.156H7.969zM5 3.813l-.531.344-4 2.5L0 6.938v2.126l.469.281 4 2.5.531.344V9.814L2.094 8.001 5 6.188V3.813zm6 0v2.375l2.906 1.813L11 9.814v2.375l.531-.344 4-2.5.469-.281V6.938l-.469-.281-4-2.5L11 3.813z"></path></g><!----></svg>